<?xml version="1.0" standalone="no"?>
<!DOCTYPE svg PUBLIC "-//W3C//DTD SVG 20010904//EN"
 "http://www.w3.org/TR/2001/REC-SVG-20010904/DTD/svg10.dtd">
<svg version="1.0" xmlns="http://www.w3.org/2000/svg"
 width="128.000000pt" height="128.000000pt" viewBox="0 0 128.000000 128.000000"
 preserveAspectRatio="xMidYMid meet">
<metadata>
Created by potrace 1.14, written by Peter Selinger 2001-2017
</metadata>
<g transform="translate(0.000000,128.000000) scale(0.100000,-0.100000)"
fill="#000000" stroke="none">
<path d="M622 1030 l-293 -190 -75 0 -74 0 0 40 0 40 74 0 c71 0 76 2 137 44
98 66 92 71 -101 73 -177 2 -190 -2 -219 -54 -15 -30 -16 -852 0 -887 6 -13
25 -31 43 -41 28 -14 84 -16 546 -13 l515 3 3 146 c2 137 4 147 22 152 18 5
20 14 20 97 0 83 -2 92 -20 97 -18 5 -20 15 -22 152 l-3 146 -33 3 c-32 3 -35
9 -127 193 -52 104 -96 189 -98 189 -1 0 -134 -86 -295 -190z"/>
</g>
</svg>
